<?xml version="1.0" standalone="no"?>
<!DOCTYPE svg PUBLIC "-//W3C//DTD SVG 20010904//EN"
 "http://www.w3.org/TR/2001/REC-SVG-20010904/DTD/svg10.dtd">
<svg version="1.0" xmlns="http://www.w3.org/2000/svg"
 width="700.000000pt" height="700.000000pt" viewBox="0 0 700.000000 700.000000"
 preserveAspectRatio="xMidYMid meet">
<metadata>
Created by potrace 1.11, written by Peter Selinger 2001-2013
</metadata>
<g transform="translate(0.000000,700.000000) scale(0.100000,-0.100000)"
fill="#000000" stroke="none">
<path d="M191 6093 c-8 -21 -24 -60 -37 -88 -60 -129 -113 -306 -130 -435 -3
-25 -10 -67 -14 -95 -9 -55 -5 -372 4 -420 4 -16 13 -66 22 -110 82 -423 366
-878 742 -1187 51 -42 53 -44 47 -83 -15 -99 -20 -182 -19 -340 1 -148 10
-299 19 -315 2 -3 6 -26 10 -50 3 -25 18 -92 32 -150 70 -285 188 -539 367
-790 33 -47 63 -87 66 -90 3 -3 25 -30 50 -60 154 -190 440 -430 679 -569 208
-122 553 -264 711 -295 14 -2 61 -14 105 -25 44 -11 98 -22 120 -25 22 -4 54
-9 70 -11 17 -3 43 -7 60 -10 16 -2 61 -7 100 -11 38 -3 88 -7 110 -10 50 -5
325 -5 385 0 87 7 176 17 230 26 30 6 71 12 90 14 19 3 60 10 90 17 664 142
1242 500 1620 1004 239 320 401 706 445 1065 3 25 9 75 13 111 9 73 8 329 -1
399 -4 25 -9 70 -12 101 l-6 55 48 39 c26 21 100 91 163 155 223 225 357 422
490 723 24 56 85 263 94 322 4 22 11 69 17 105 16 98 18 303 4 426 -18 156
-68 352 -119 469 -8 17 -26 59 -42 95 -15 36 -31 69 -35 74 -6 7 -130 -71
-172 -110 -11 -9 -241 -160 -292 -191 -559 -338 -1240 -589 -1875 -692 -36 -6
-74 -13 -85 -15 -11 -2 -49 -7 -85 -11 -36 -4 -72 -8 -80 -10 -15 -3 -115 -15
-175 -20 -261 -26 -888 -26 -1055 0 -14 2 -50 6 -80 10 -88 10 -132 15 -173
21 -20 3 -47 7 -60 9 -12 1 -36 5 -53 9 -17 3 -46 8 -65 10 -53 7 -235 44
-329 67 -47 12 -92 22 -100 24 -38 8 -305 88 -395 118 -502 172 -967 412
-1392 720 -51 37 -96 67 -101 67 -4 0 -14 -17 -21 -37z m203 -353 c274 -182
654 -378 971 -503 153 -61 339 -127 400 -144 6 -1 71 -20 145 -42 226 -65 584
-140 799 -166 30 -4 61 -8 70 -10 23 -4 150 -17 191 -20 19 -1 85 -6 145 -11
205 -15 756 -9 910 11 17 2 57 7 90 10 33 3 71 7 85 10 14 2 48 7 75 10 83 10
357 56 400 67 22 6 49 12 60 14 11 2 40 8 65 13 25 6 54 12 65 15 11 2 47 11
80 20 33 9 67 18 75 20 8 2 76 22 150 44 365 110 765 278 1069 449 51 29 95
53 97 53 3 0 23 12 47 27 23 14 58 36 77 48 19 12 75 48 123 79 48 31 91 56
96 56 6 0 54 -159 54 -180 0 -3 4 -21 9 -40 15 -66 23 -175 22 -310 -1 -117
-9 -180 -39 -335 -12 -59 -68 -212 -116 -313 -106 -226 -308 -487 -515 -663
-99 -86 -157 -134 -166 -140 -5 -3 -7 -21 -4 -40 66 -375 53 -677 -41 -989
-218 -724 -836 -1306 -1631 -1534 -153 -44 -305 -75 -452 -90 -30 -4 -73 -9
-95 -11 -49 -6 -341 -6 -410 -1 -87 7 -179 17 -185 21 -3 2 -30 6 -60 10 -135
16 -416 94 -585 163 -543 220 -991 628 -1235 1127 -150 307 -210 575 -205 915
3 184 6 214 26 320 21 111 25 99 -58 165 -233 183 -451 436 -577 670 -87 160
-162 387 -184 560 -9 69 -9 338 1 405 16 112 63 290 77 290 5 0 43 -23 84 -50z"/>
<path d="M2440 3795 c-101 -21 -210 -67 -284 -119 -66 -46 -150 -134 -198
-208 l-50 -77 -77 53 c-200 139 -375 217 -487 217 -131 0 -224 -86 -224 -207
0 -77 45 -113 113 -91 32 11 47 35 52 84 2 20 9 40 17 44 58 37 246 -47 486
-219 l63 -44 -7 -43 c-57 -380 164 -731 530 -844 116 -36 242 -38 401 -6 50
10 162 61 223 101 171 113 300 316 327 516 l6 47 55 11 c31 7 73 13 95 15 43
3 157 -18 168 -31 4 -5 16 -47 25 -94 59 -285 290 -514 581 -576 54 -11 219
-13 275 -3 282 52 509 254 589 524 32 110 34 140 27 350 -1 38 1 41 79 97 143
103 314 191 396 204 54 9 75 -7 84 -61 5 -37 12 -50 38 -65 40 -24 75 -19 105
16 20 23 23 35 19 73 -11 94 -48 150 -119 181 -50 22 -116 27 -176 16 -83 -16
-249 -100 -406 -205 l-90 -59 -35 60 c-44 75 -152 186 -228 235 -169 108 -384
147 -564 103 -175 -43 -250 -83 -364 -195 -114 -111 -191 -248 -214 -380 l-7
-40 -45 4 c-76 8 -192 6 -246 -2 -52 -9 -53 -8 -53 16 0 68 -70 225 -145 324
-162 217 -470 333 -735 278z m290 -170 c269 -70 445 -308 435 -589 -3 -92 -8
-114 -41 -196 -101 -254 -368 -400 -650 -356 -45 8 -144 45 -176 67 -14 11
-31 19 -36 19 -19 0 -149 135 -177 184 -56 96 -77 172 -81 286 -3 122 9 181
62 289 77 156 255 284 439 313 45 7 166 -2 225 -17z m1774 11 c157 -25 301
-122 393 -264 104 -160 118 -383 36 -557 -111 -236 -358 -370 -613 -333 -234
35 -426 209 -485 443 -18 70 -19 182 -4 257 15 73 80 203 129 261 83 94 231
177 345 192 28 4 51 8 52 9 5 4 108 -2 147 -8z"/>
</g>
</svg>
