<?xml version="1.0" encoding="UTF-8"?>
<svg width="499px" height="152px" viewBox="0 0 499 152" version="1.1" xmlns="http://www.w3.org/2000/svg" xmlns:xlink="http://www.w3.org/1999/xlink">
    <title>header</title>
    <g id="vert-a4" stroke="none" stroke-width="1" fill="none" fill-rule="evenodd">
        <g id="web" transform="translate(-48.000000, -64.000000)">
            <g id="content-area" transform="translate(48.000000, 64.000000)">
                <g id="header">
                    <rect id="Rectangle" x="0" y="0" width="499" height="152"></rect>
                    <g id="title" transform="translate(22.000000, 13.000000)" fill="#4526B0" font-family="GochiHand-Regular, Gochi Hand" font-size="72" font-weight="normal" letter-spacing="2.20408163">
                        <text id="Habit">
                            <tspan x="0" y="56">Habit</tspan>
                        </text>
                        <text id="Tracker">
                            <tspan x="33" y="100">Tracker</tspan>
                        </text>
                    </g>
                    <g id="owl-silhouette-copy" transform="translate(310.000000, 14.000000)">
                        <path d="M164,16.6284052 C164,30.8949567 156.319464,43.9259907 143.650894,53.8670775 C144.271827,57.057081 144.59542,60.3405376 144.59542,63.6921854 C144.59542,94.883315 116.570496,120.168722 82,120.168722 C47.4295042,120.168722 19.4045802,94.883315 19.4045802,63.6921854 C19.4045802,60.3405376 19.728173,57.057081 20.3487085,53.8658606 C7.68053633,43.9259907 0,30.8949567 0,16.6284052 C0,10.9026837 1.23712611,5.37597054 3.537322,0.168145 C25.0048174,15.7649198 52.2941488,25.0998856 82,25.0998856 C111.705851,25.0998856 138.995183,15.7649198 160.461008,0.168931539 C162.762874,5.37597054 164,10.9026837 164,16.6284052 Z" id="Combined-Shape" stroke="#666666" stroke-width="4"></path>
                        <path d="M75,83 L82,89 M89,83 L82,89" id="nose" stroke="#666666" stroke-width="2" stroke-linecap="round"></path>
                        <g id="glasses" fill="#D38027" transform="translate(24.796669, 50.775850)" stroke="#D38027">
                            <g fill="none" transform="translate(-0.000000, 0.000000)">
                                <g id="left" transform="translate(0.203331, 0.224150)" stroke-width="4">
                                    <path d="M0,14.2241499 C0,13.2915601 7.31575295,5.86309549 12,5.24136893 C14.9146426,5.03412674 16.5813093,6.6976047 17,10.2318028" id="earhook-L" stroke-linecap="round" stroke-linejoin="round" transform="translate(8.500000, 9.724150) scale(-1, 1) translate(-8.500000, -9.724150) "></path>
                                    <circle id="glass-L" cx="33.203331" cy="18.2241499" r="16"></circle>
                                </g>
                                <g id="right" transform="translate(62.203331, 0.224150)" stroke-width="4">
                                    <path d="M35,14.2241499 C35,13.2915601 42.3157529,5.86309549 47,5.24136893 C49.9146426,5.03412674 51.5813093,6.6976047 52,10.2318028" id="earhook-R" stroke-linecap="round" stroke-linejoin="round"></path>
                                    <circle id="glass-R" cx="18.9361554" cy="18.2241499" r="16"></circle>
                                </g>
                                <path d="M50.7758501,19.1755725 C53.5221526,18.3428175 55.6040402,17.92644 57.0215128,17.92644 C58.4389855,17.92644 60.5208731,18.3428175 63.2671756,19.1755725" id="Path" stroke-width="6" stroke-linecap="round"></path>
                            </g>
                        </g>
                        <g id="eyes" transform="translate(80.727273, 69.545455) scale(-1, 1) translate(-80.727273, -69.545455) translate(46.727273, 59.545455)">
                            <g id="eye-r">
                                <circle id="Oval" stroke="#666666" cx="10.2272727" cy="9.95454545" r="10"></circle>
                                <circle id="Oval" fill="#666666" cx="11.7272727" cy="9.45454545" r="6"></circle>
                            </g>
                            <g id="eye--l" transform="translate(47.842471, 0.000000)">
                                <circle id="Oval" stroke="#666666" cx="10.3848022" cy="9.95454545" r="10"></circle>
                                <circle id="Oval" fill="#666666" cx="11.8848022" cy="9.45454545" r="6"></circle>
                            </g>
                        </g>
                    </g>
                </g>
            </g>
        </g>
    </g>
</svg>