<?xml version="1.0" encoding="UTF-8"?>
<svg width="25px" height="28px" viewBox="0 0 25 28" version="1.1" xmlns="http://www.w3.org/2000/svg" xmlns:xlink="http://www.w3.org/1999/xlink">
    <title>owlbox</title>
    <g id="vert-a4" stroke="none" stroke-width="1" fill="none" fill-rule="evenodd">
        <g id="web" transform="translate(-270.000000, -311.000000)" stroke="#979797">
            <g id="content-area" transform="translate(48.000000, 64.000000)">
                <g id="habits" transform="translate(46.000000, 200.000000)">
                    <g id="line-Copy" transform="translate(0.000000, 50.000000)">
                        <g id="days" transform="translate(177.000000, 0.000000)">
                            <path d="M17.928942,-0.26499947 C15.7173339,3.27357353 13.5300998,5.14705882 11.2941176,5.14705882 C9.05813553,5.14705882 6.8709014,3.27357353 4.65929327,-0.26499947 C4.48435161,-0.544906123 4.31870811,-0.820110258 4.16247134,-1.09059921 C4.03684282,-0.80215413 3.90804675,-0.504347492 3.7760404,-0.197701844 C2.31073407,3.20614795 1.36464254,5.57412226 0.935838674,6.90554466 C-0.296751259,10.7326973 -0.5,13.2019484 -0.5,14.1176471 C-0.5,17.2944464 0.750375677,19.8292629 2.77761118,21.6030939 C4.9180144,23.4759468 7.93889086,24.5 11.2941176,24.5 C14.6476918,24.5 17.667311,23.4734763 19.8075595,21.6007589 C21.8367351,19.8252302 23.0882353,17.2895074 23.0882353,14.1176471 C23.0882353,13.1686255 22.9016113,10.7695296 21.6522252,6.90501353 C21.2260796,5.58688879 20.2800767,3.21921292 18.8123436,-0.197355947 C18.6805666,-0.504104774 18.552027,-0.80198264 18.4267263,-1.0909902 C18.2700384,-0.820959642 18.1041537,-0.545338078 17.928942,-0.26499947 Z" id="owlbox"></path>
                        </g>
                    </g>
                </g>
            </g>
        </g>
    </g>
</svg>